<?xml version="1.0" encoding="UTF-8"?>
<svg id="Layer_2" xmlns="http://www.w3.org/2000/svg" viewBox="0 0 251.52 99.5">
  <defs>
    <style>
      .cls-1 {
        fill: #0beef4;
      }
    </style>
  </defs>
  <g id="Layer_1-2" data-name="Layer_1">
    <g>
      <path d="M36.14,52.27c1.89-3.66,2.9-7.77-.79-11.1,3.05-2.04,2.72-6.65-.17-8.79,1.89-.98,2.14-4.72.33-7.33,4,.24,6.04-2.19,6.83-3.94-2.4.24-4.48,1.17-5.73,2.89-.69-2.43-1.87-4.3-3.06-4.48,2.04-2.49,1.84-6.2-.74-7.64,3.51-.12,5.71-2.3,4.46-5.21,2.88,2.01,9.88,2.29,11.42-1.79,3.17,3.23,7.09,3.41,11.59-.24,1.15,3.37,4.69,4.43,8.71,3.29-1.33,3.29.33,8.26,4.85,8.52-2.93,3.67-1.58,8.92,2.29,10.14-4.91,1.59-3.51,8.4-.89,8.61-4.48,1.17-3.78,7.31-1.94,8.42-4.36.18-6.4,3.59-5.79,6.61-4.02-2.39-8.46-1.48-11.1,1.7-.99-2.93-2.92-5.21-4.47-6.01-.43,1.27.07,3.71,1.15,5.2-4.15-.55-7.98.63-9.88,2.34-.24-3.31-4.29-3.41-7.06-1.19ZM57.96,33.62c4.25-.82,3.83-8.43-.26-8.2,2.34-3.82.13-7.25-4.02-6.95-7.01.5-5.16,8.07-1.88,11.09-2.09,2.76-2.57,10.55,3.66,10.11,3.96-.28,4.11-3.69,2.5-6.05Z"/>
      <path d="M74.78,47.17c3.16-2.31,4.28-7.61-.52-9.16,4.25-1.61,3.98-9.09-.75-9.67,4.48-3.06,2.85-8.55-.95-11.41,3.47.14,5.96-.62,7.32-2.54-1.24-.96-3.38-.8-5.53.2,1.02-2.16.02-5.22-2.4-6.16,2.26-.29,4.41-2.14,4.11-5.45,2.03,1.94,6.19,1.78,8.05-.51-.17,3.08,1.87,5.15,4.4,5.03-1.67,2.14-2.93,4.58-1.36,6.55-2.8-.91-4.35-.6-5.27.18,1.41,1.53,3.66,1.89,7.78.29-2.67,2.8-4.75,10.19.05,11.67-4.27,4.09-1.79,9.72.87,10.31-3.96,3.87-1.28,7.66,1.64,9.28-4.32-.15-7.55,2.04-8.37,5.16-.88-2.28-4.9-4.67-9.08-3.79Z"/>
      <path d="M91.14,43.32c2.89-3.4,1.78-9.78-3.88-11.46,4.59-2.35,4.72-8.88.95-12.27,4.3-.05,6.95-2.26,6.14-7.22,3.72,3.71,8.57,3.11,10.59-2.45,1.01,5.02,6.47,5.6,9.73,2.89-1.25,5.31.51,7.2,2.89,7.62-1.47,3.11-1.62,5.6.34,7.48-6.36.45-10.44.88-17.05,1.41v.13c.15,2.01.76,6.01,4.92,5.72,2.79-.2,4.08-2.18,4.86-5.89,1.47,3.29,5.45,5.03,8.51,4.03-2.52,3.12-3.87,6.99-.76,10.42-4.22-1.53-6.37.33-7.12,4.49-4.05-4.67-8.82-2.89-11.64,1.35,0-5.48-3.64-7.18-8.47-6.25ZM107.66,28.12c-.19-2.73-.91-4.57-3.64-4.37-2.08.15-3.3,1.34-3.24,4.93l6.87-.56Z"/>
      <path d="M125.54,58.29c1.15-3.15-3.01-4.68-8.06-3.21,2.58-3.12,1.95-6.47-.42-8.58,2.95.18,6.27.08,7.79-1.4-.51-1.66-3.36-1.33-6.43.33,2.06-4.97.52-7.28-1.27-8.65,2.29-.88,4.44-2.67,6.75-4.98-1.32-.17-2.99.15-5.02.95,1.3-3.75.91-6.46-3.43-7.91,3.64-2.02,3.43-5.01.06-9.27,4.62.78,7.75-1.14,6.73-6.22,3.49,4.97,8.44,3.18,9.2-1.83.61,2.17,1.89,3.58,3.38,4.39,2.17-3.42,1.91-7.12-.17-9.71,3.55,1.31,6,1.85,10.61-2.19-2.22,6.29-1.3,8.25,1.11,10.95-3.93-1.16-7.29-.65-10.33,1.45,2.41.81,5.04.23,6.45-1.05-1.72,3.25-.12,8.29,3.3,8.77-3.26,1.86-3.76,5.81-1.04,8.29-2.7-.39-5.91,1.27-6.43,4.96,1.79-.58,3.04-1.32,4.07-2.38-.3,3.15,1.43,4.46,5.41,3.53-2.71,4.11-1.61,8.53,1.88,9.91-3.4-.15-4.95,6.55-2.97,9.6-3.78-1.82-8.78-.55-8.28,3.66-3.08-2.97-9.77-2.5-12.87.59ZM127.11,34.69c-.34-1.15-.93-2.02-1.94-2.54-.48.56-.77,1.16-.74,1.55.05.71.79.99,2.68.98ZM132.02,46.87c3.12-.22,5.56-.72,5.46-2.15-.08-1.17-1.22-1.61-5.7-1.29-2.47.18-4.13.62-5.52,1.24.31,1.54,2,2.47,5.77,2.2ZM130.1,34.54c3.18-.23,5.64-.53,7.5-.99-3.63-2.48-7.66-1.28-9.57,1.14l2.08-.15ZM133.56,23.6c-.15-2.14-1.13-3.11-2.82-2.99-1.82.13-2.63,1.49-2.5,3.37.16,2.27,1.47,3.22,2.96,3.12,1.3-.09,2.54-1.03,2.36-3.5Z"/>
      <path d="M145.7,40.21c2.83-3.33,1.89-10.96-3.6-12.07,4.6-3.13,4.9-8.18.9-12.98,4.69.77,7.58-2.5,6.64-7.52,3.97,4.41,10.13,3.91,12.5-2.13.77,5.36,6.05,7.07,10.58,5.64-2.43,4.41-1.66,11.53,3.74,13.04-4.58,3.52-4.83,10.91-1.64,13.55-4.28-.54-6.95.43-7.62,6.61-3.87-3.9-9.25-3.45-12.03,1.45-.31-5.26-5.63-7.62-9.47-5.59ZM162.67,25.63c-.3-4.15-1.64-5.69-3.79-5.54-2.4.17-3.37,2.13-3.11,5.83.29,4.02,1.68,6.14,3.95,5.98,1.49-.11,3.31-1.15,2.94-6.28Z"/>
    </g>
    <g>
      <path d="M4.05,98.51c1.76-3.65,3.98-9.15-.92-11.09,3.66-2.68,3.03-7.78-.17-8.79,2.55-1.68,2.12-5.04-.25-7.09,4.5-.91,6.31-2.02,7.12-4.36-2.66.26-4.71,1.64-5.59,3.01.13-1.77-1.82-5.35-4.25-4.65,3.09-2.44,3.19-6.55.11-9.47,4,1.21,6.8.3,7-3.37,2.47,2.69,6.52,2.67,8.71-1.34,2.09,2.85,6.69,3.24,9.76-.37.82,3.2,4.97,4.73,8.22,2.74-1.31,3.62-.46,7.34,2.89,8.53-2.69,1.56-3.09,3.35-2.27,6.62-2.68-.98-5.04-.29-5.91,1.27,2.74,1.89,5.33,2.42,7.8,1.4-1.18,4.52.83,8.03,3.67,8.54-3.97,1.91-3.89,7.58-1.1,10.19-4.87.35-5.32,3.18-5.58,6.79-3.88-2.33-8.15-1.83-11.01,1.05-.34-2.98-1.96-4.69-3.81-5.86-.29,1.46.12,3.45.99,4.76-3.49-.4-7.32.72-9.15,2.48-.52-2.7-3.62-3.2-6.27-.99ZM19.43,71.78c3.7.71,4.56-1.89,4.44-3.58-.2-2.86-2.2-3.43-4.02-3.3-3.24.23-3.76,3.01-3.57,5.67.13,1.82.29,4.09,1.91,3.97,1.23-.09,1.79-1.37,1.24-2.76ZM25.84,82.15c-.25-1.74-1.92-3.19-4.36-.73-.25-3.44-4.4-4.06-4.11.03.23,3.24.9,5.28,4.66,5.02,2.86-.2,4.09-2.12,3.8-4.32Z"/>
      <path d="M39.7,91.72c2.83-3.33,1.89-10.96-3.6-12.07,4.6-3.13,4.9-8.18.9-12.98,4.69.77,7.58-2.5,6.64-7.52,3.97,4.41,10.13,3.91,12.5-2.13.77,5.36,6.05,7.07,10.58,5.64-2.42,4.41-1.66,11.53,3.74,13.04-4.58,3.52-4.83,10.91-1.64,13.55-4.28-.54-6.95.43-7.62,6.61-3.87-3.9-9.25-3.45-12.03,1.45-.31-5.26-5.63-7.62-9.47-5.59ZM56.66,77.14c-.3-4.15-1.65-5.69-3.79-5.54-2.4.17-3.37,2.13-3.11,5.83.29,4.02,1.68,6.14,3.95,5.98,1.49-.11,3.31-1.15,2.94-6.28Z"/>
      <path d="M71.55,92c1.17-2.76.4-6.23-2.65-6.99,3.32-1.93,2.53-8.46-.75-8.62,3.32-2.78,2.43-8.91-3.41-9.35,3.89-2.1,8.87-7.29,12.84-14.74.27,4.68,1.52,6.74,5.22,4.65-2.84,4.96,1.96,4.62,5.66,2.6-1.2,3.28-.87,8.8-.53,10.87-7.07-.28-8.1.77-7.84,4.34.33,4.67.69,6.08,3.29,5.9,1.56-.11,2.74-.91,3.83-3.86.87,4.9,1.44,7.4,4.26,8.5-2.42.89-3.6,3.45-2.83,6.01-2.9-1.36-6.85-.95-8.39,3.93-1.92-3.97-4.6-4.11-8.71-3.23Z"/>
      <path d="M105.98,90c.94-1.5,1.1-4.65.63-6.7-1.65,1.55-2.77,4.11-2.95,8.89-2.79-3.39-7.99-2.23-10.44-.1.59-4.54-2.09-7.35-5.17-6.61,2.71-3.13,2.68-7.17.16-9.67,3.99.11,6.96-.24,9.34-.8-1.34-2.32-4.95-3.5-8.8-2.63,2.29-1.66,1.58-8.07-.8-10.31,3.3.48,6.65-.93,6.02-6.17,2.61,3.66,8.89,3.87,10.74-2.14,1.14,6.9,7.84,4.72,10.37,3.63-.95,4.05-.96,8.55,3.34,8.37-3.16,3.29-3.39,7.35.58,9.87-3.41,2.53-1.17,10.06,2.54,10.97-4.62,1.11-6.73,2.63-7.58,6.28-1.89-2.67-5.71-3.25-7.97-2.89ZM105.53,70.92c-.59-1.85-1.69-2.62-3.5-2.49-2.73.19-4.1,1.92-4.04,6.49,3.52-.97,5.57-2.42,7.54-4ZM102.84,79.78c2.08-.15,3.47-1.62,3.19-5.64-.07-.91-.19-1.75-.31-2.46-2.11,1.52-3.8,2.49-6.59,3.6.24,3.31,1.64,4.64,3.71,4.5Z"/>
      <path d="M119.5,85.77c3.67-3.39,2.55-9.97-3.11-11.65,4.55-2.02,4.36-10.16.73-12.58,3.65-.06,7.16-2.01,5.98-7.6,2.91,3.31,8.2,4.31,11.19-2.3.96,5.15,5.62,5.6,8.92,3.41-1.16,3.93-.09,6.92,2.55,7.38-1.91,1.64-2.42,3.63-.43,6.81-3.62-1.37-7.12-1.06-9.68,1.47-.01-4.76-1.35-5.19-3.04-5.07-1.95.14-2.91,1.25-2.64,5.01.19,2.66.48,6.68,4.7,6.38,2.6-.19,3.75-2.22,4.08-6.75,1.34,3.23,5.22,4.65,9.15,3.91-2.27,3.88-3.89,7.65-1.09,11.17-3.81-1.29-6.56.34-7.14,5.01-3.97-4.48-7.75-3.43-10.87,1.23-.55-5.83-4.99-6.82-9.29-5.86Z"/>
      <path d="M146.37,83.85c3.67-3.39,2.55-9.96-3.11-11.65,4.55-2.02,4.36-10.16.73-12.58,3.65-.06,7.16-2.01,5.98-7.6,2.91,3.31,8.2,4.31,11.19-2.3.96,5.15,5.62,5.6,8.92,3.41-1.16,3.93-.09,6.92,2.55,7.38-1.91,1.64-2.42,3.63-.43,6.81-3.62-1.37-7.12-1.06-9.68,1.47-.01-4.76-1.35-5.19-3.04-5.07-1.95.14-2.91,1.25-2.64,5.02.19,2.66.48,6.68,4.7,6.38,2.6-.19,3.75-2.22,4.08-6.75,1.34,3.23,5.22,4.65,9.15,3.91-2.27,3.88-3.89,7.65-1.09,11.17-3.81-1.29-6.56.34-7.14,5.01-3.97-4.48-7.75-3.43-10.87,1.23-.55-5.83-4.99-6.82-9.29-5.86Z"/>
      <path d="M172.74,84.12c3.16-2.31,4.29-7.61-.52-9.16,4.25-1.61,3.98-9.09-.75-9.67,4.48-3.06,2.85-8.55-.94-11.41,3.47.14,5.96-.62,7.32-2.54-1.24-.96-3.38-.8-5.53.2,1.02-2.16.02-5.22-2.4-6.16,2.26-.29,4.41-2.14,4.11-5.45,2.03,1.94,6.19,1.78,8.05-.51-.17,3.08,1.87,5.15,4.4,5.03-1.67,2.14-2.93,4.58-1.36,6.55-2.8-.91-4.35-.6-5.27.18,1.41,1.53,3.66,1.89,7.78.29-2.67,2.8-4.75,10.19.05,11.67-4.27,4.09-1.79,9.72.87,10.31-3.96,3.87-1.28,7.66,1.64,9.28-4.32-.15-7.55,2.04-8.37,5.16-.88-2.28-4.9-4.67-9.08-3.79Z"/>
      <path d="M188.81,83.5c2.48-2.79,2.98-7.58-.7-9.86,4.06-1.66,4.3-6.44-.7-7.97,4.78-2.49,2.47-6.57-1.87-8.87,3.89-1.19,6.07-3.63,6.92-8.13,1.78,3,6.7,5.2,9.41,3.96-1.28,3.09-1.55,7.55-.85,9.06,1.8-1.3,3.58-5.6,1.85-12.52,3.38,2.5,7.21,1.38,8.82-2.59,1.16,5.27,3.98,5.52,7.15,4.19-2.3,3.42-2.39,7.61.25,9.05-3.62,5.93-2.48,10.09,2.03,11.14-2.59,2.99-2.5,6.11,1.17,9.05-3.64.19-5.92,1.14-7.37,5.48-2.28-3.62-4.72-4.03-9.09-3.07,1.01-3.27,1.59-7.94,1.28-12.29-.32-4.54-.91-7.24-3.44-7.06-2.01.14-2.71,1.37-2.54,3.64.14,2.01,1.77,4.7,3.44,5.23-3.46,1.81-1.61,7.62.66,9.28-3.67-.2-7,2.46-7.69,5.57-1.01-2.28-5.27-4.45-8.71-3.29Z"/>
      <path d="M220.18,80.74c3.16-2.31,4.28-7.61-.52-9.16,4.25-1.61,3.98-9.09-.75-9.67,4.48-3.06,2.85-8.55-.95-11.41,3.47.14,5.96-.62,7.32-2.54-1.24-.96-3.38-.8-5.53.2,1.02-2.16.02-5.22-2.4-6.16,2.26-.29,4.41-2.14,4.11-5.45,2.03,1.94,6.19,1.78,8.05-.51-.17,3.08,1.87,5.15,4.4,5.04-1.67,2.14-2.93,4.58-1.36,6.55-2.8-.91-4.35-.6-5.27.18,1.41,1.53,3.66,1.89,7.78.29-2.67,2.8-4.75,10.19.05,11.67-4.27,4.09-1.79,9.72.87,10.31-3.96,3.87-1.28,7.66,1.64,9.28-4.32-.15-7.55,2.04-8.37,5.16-.88-2.29-4.9-4.67-9.08-3.79Z"/>
      <path class="cls-1" d="M238.96,82.46c.35-4.2-1.63-6.34-4.4-6.79,2.64-1.36,3.5-4.03,1.53-6.89,4.3.87,5.79-1.13,6.69-4.06.91,3.59,4.1,4.4,7.05,3.67-1.7,1.75-1,6.07,1.69,7.25-2.46.31-4.69,3.79-3.75,6.86-2.31-2.18-6.24-2.49-8.81-.03Z"/>
    </g>
  </g>
</svg>