<?xml version="1.0" encoding="UTF-8"?>
<svg id="Layer_2" xmlns="http://www.w3.org/2000/svg" viewBox="0 0 62.1 62.1">
  <defs>
    <style>
      .cls-1 {
        fill: #0beef4;
      }
    </style>
  </defs>
  <g id="Layer_1-2" data-name="Layer_1">
    <rect class="cls-1" width="62.1" height="62.1" rx="10.37" ry="10.37"/>
    <g>
      <path d="M5.74,11.74h5.14c3.43,0,5.77,2.15,5.77,5.78s-2.32,5.77-5.77,5.77h-5.14v-11.55ZM10.83,20.02c1.26,0,2.02-1.03,2.02-2.49s-.8-2.51-2.04-2.51h-1.36v5h1.37Z"/>
      <path d="M17.46,11.74h3.71v11.55h-3.71v-11.55Z"/>
      <path d="M22.31,11.74h8.75v3.12h-5.04v1.19h4.75v2.8h-4.75v1.32h5.16v3.12h-8.87v-11.55Z"/>
      <path d="M31.6,17.53c0-3.61,2.58-6.14,6.11-6.14,2.36,0,4.27,1.09,5.36,3l-3.31,1.63c-.41-.78-1.09-1.27-2.05-1.27-1.51,0-2.32,1.19-2.32,2.78s.81,2.9,2.41,2.9c1.05,0,1.75-.49,2.09-1.29h-2.58v-2.61h6.34c.02.25.03.53.03.78,0,3.8-2.36,6.34-6.04,6.34-3.48,0-6.04-2.54-6.04-6.12Z"/>
      <path d="M44.08,17.53c0-3.65,2.58-6.14,6.14-6.14s6.14,2.49,6.14,6.14-2.56,6.12-6.14,6.12-6.14-2.49-6.14-6.12ZM52.51,17.53c0-1.48-.87-2.61-2.29-2.61s-2.29,1.14-2.29,2.61.88,2.59,2.29,2.59,2.29-1.12,2.29-2.59Z"/>
      <path d="M6.47,25.25h4.17c1.93,0,3.09,1.09,3.09,2.82,0,1.27-.73,2.48-2.02,2.83,1.36.22,2.49.98,2.49,2.71,0,1.93-1.37,3.19-3.43,3.19h-4.31v-11.55ZM10.52,30.66c1.76,0,2.63-1.2,2.63-2.6s-.9-2.27-2.54-2.27h-3.56v4.87h3.48ZM10.76,36.26c1.68,0,2.87-.92,2.87-2.65s-1.25-2.41-2.97-2.41h-3.61v5.05h3.71Z"/>
      <path d="M15.85,31.05c0-3.51,2.27-6.19,5.68-6.19s5.68,2.68,5.68,6.19-2.27,6.16-5.68,6.16-5.68-2.66-5.68-6.16ZM26.64,31.05c0-3.19-2.02-5.65-5.11-5.65-3.09-.02-5.11,2.44-5.11,5.65s2.04,5.61,5.11,5.61,5.11-2.43,5.11-5.61Z"/>
      <path d="M31.1,25.79h-3.94v-.54h8.45v.54h-3.94v11.01h-.58v-11.01Z"/>
      <path d="M39.52,24.98h.14l5.07,11.82h-.63l-1.66-3.9h-5.68l-1.66,3.9h-.63l5.06-11.82ZM42.2,32.36l-2.61-6.17-2.61,6.17h5.22Z"/>
      <path d="M45.27,31.05c0-3.55,2.26-6.19,5.6-6.19,2.22,0,3.97,1.15,4.92,3.14l-.51.29c-.81-1.82-2.39-2.88-4.41-2.88-3.02-.02-5.02,2.44-5.02,5.65s2.04,5.61,5.06,5.61c2.04,0,3.63-1.09,4.44-2.9l.49.29c-.92,2-2.7,3.15-4.94,3.15-3.34,0-5.63-2.63-5.63-6.16Z"/>
      <path d="M5.97,44.55c0-3.55,2.26-6.19,5.6-6.19,2.22,0,3.97,1.15,4.92,3.14l-.51.29c-.81-1.81-2.39-2.88-4.41-2.88-3.02-.02-5.02,2.44-5.02,5.65s2.04,5.61,5.05,5.61c2.04,0,3.63-1.09,4.44-2.9l.49.29c-.92,2-2.7,3.15-4.94,3.15-3.34,0-5.63-2.63-5.63-6.16Z"/>
      <path d="M18.36,38.75h.58v11.55h-.58v-11.55Z"/>
      <path d="M21.53,38.48h.24l6.73,8.89c.42.56.86,1.12,1.25,1.71v-10.33h.58v11.7h-.25l-6.72-8.87c-.44-.59-.86-1.12-1.25-1.71v10.43h-.58v-11.82Z"/>
      <path d="M32.93,38.75h.58v11.55h-.58v-11.55Z"/>
      <path d="M35.09,39.98c0-1.52,1.06-2.61,2.58-2.61s2.58,1.09,2.58,2.61-1.05,2.62-2.58,2.62-2.58-1.09-2.58-2.62ZM39.97,39.98c0-1.37-.93-2.33-2.29-2.33s-2.29.97-2.29,2.33.93,2.34,2.29,2.34,2.29-.97,2.29-2.34ZM36.91,38.62h.95c.47,0,.76.27.76.7s-.3.7-.73.7h-.31l1.19,1.25h0s-.37.01-.37.01l-1.2-1.28h0v1.28h-.29v-2.66ZM37.83,39.8c.3,0,.49-.18.49-.47,0-.28-.21-.44-.5-.44h-.62v.92h.63Z"/>
    </g>
  </g>
</svg>