<?xml version="1.0" encoding="UTF-8"?>
<svg id="Layer_2" xmlns="http://www.w3.org/2000/svg" viewBox="0 0 192.75 18.78">
  <defs>
    <style>
      .cls-1 {
        fill: #e6e6e6;
      }
    </style>
  </defs>
  <g id="Layer_1-2" data-name="Layer_1">
    <g>
      <path class="cls-1" d="M0,1.95h7.23c4.82,0,8.11,3.03,8.11,8.14s-3.27,8.11-8.11,8.11H0V1.95ZM7.16,13.6c1.77,0,2.84-1.46,2.84-3.51s-1.12-3.53-2.86-3.53h-1.91v7.04h1.93Z"/>
      <path class="cls-1" d="M16.5,1.95h5.23v16.25h-5.23V1.95Z"/>
      <path class="cls-1" d="M23.32,1.95h12.31v4.39h-7.09v1.67h6.68v3.94h-6.68v1.86h7.25v4.39h-12.48V1.95Z"/>
      <path class="cls-1" d="M36.38,10.09c0-5.08,3.63-8.64,8.59-8.64,3.32,0,6.01,1.53,7.54,4.22l-4.65,2.29c-.57-1.1-1.53-1.79-2.89-1.79-2.12,0-3.27,1.67-3.27,3.91s1.15,4.08,3.39,4.08c1.48,0,2.46-.69,2.94-1.81h-3.63v-3.67h8.93c.02.36.05.74.05,1.1,0,5.35-3.32,8.92-8.5,8.92-4.89,0-8.5-3.58-8.5-8.61Z"/>
      <path class="cls-1" d="M53.95,10.09c0-5.13,3.63-8.64,8.64-8.64s8.64,3.51,8.64,8.64-3.6,8.61-8.64,8.61-8.64-3.51-8.64-8.61ZM65.81,10.09c0-2.08-1.22-3.68-3.22-3.68s-3.22,1.6-3.22,3.68,1.24,3.65,3.22,3.65,3.22-1.57,3.22-3.65Z"/>
      <path class="cls-1" d="M73.41,1.95h5.87c2.72,0,4.34,1.53,4.34,3.96,0,1.79-1.03,3.48-2.84,3.99,1.91.31,3.51,1.38,3.51,3.82,0,2.72-1.93,4.49-4.82,4.49h-6.06V1.95ZM79.11,9.57c2.48,0,3.7-1.69,3.7-3.65s-1.26-3.2-3.58-3.2h-5.01v6.85h4.89ZM79.44,17.44c2.36,0,4.03-1.29,4.03-3.72s-1.77-3.39-4.18-3.39h-5.08v7.11h5.23Z"/>
      <path class="cls-1" d="M86.61,10.12c0-4.94,3.2-8.71,8-8.71s7.99,3.77,7.99,8.71-3.2,8.66-7.99,8.66-8-3.75-8-8.66ZM101.79,10.12c0-4.49-2.84-7.95-7.18-7.95-4.34-.02-7.18,3.44-7.18,7.95s2.86,7.9,7.18,7.9,7.18-3.41,7.18-7.9Z"/>
      <path class="cls-1" d="M108.07,2.72h-5.54v-.76h11.88v.76h-5.54v15.49h-.81V2.72Z"/>
      <path class="cls-1" d="M119.91,1.57h.19l7.14,16.63h-.88l-2.34-5.49h-8l-2.34,5.49h-.88l7.11-16.63ZM123.68,11.95l-3.68-8.69-3.67,8.69h7.35Z"/>
      <path class="cls-1" d="M128,10.12c0-4.99,3.17-8.71,7.88-8.71,3.13,0,5.58,1.62,6.92,4.42l-.72.41c-1.15-2.55-3.36-4.06-6.2-4.06-4.25-.02-7.06,3.44-7.06,7.95s2.86,7.9,7.11,7.9c2.86,0,5.11-1.53,6.25-4.08l.69.41c-1.29,2.82-3.79,4.44-6.95,4.44-4.7,0-7.92-3.7-7.92-8.66Z"/>
      <path class="cls-1" d="M144.52,10.12c0-4.99,3.17-8.71,7.88-8.71,3.13,0,5.58,1.62,6.92,4.42l-.72.41c-1.15-2.55-3.36-4.06-6.2-4.06-4.25-.02-7.06,3.44-7.06,7.95s2.86,7.9,7.11,7.9c2.86,0,5.11-1.53,6.25-4.08l.69.41c-1.29,2.82-3.79,4.44-6.95,4.44-4.7,0-7.92-3.7-7.92-8.66Z"/>
      <path class="cls-1" d="M161.95,1.95h.81v16.25h-.81V1.95Z"/>
      <path class="cls-1" d="M166.41,1.57h.33l9.47,12.51c.6.79,1.22,1.57,1.77,2.41V1.95h.81v16.47h-.36l-9.45-12.48c-.62-.83-1.22-1.57-1.77-2.41v14.68h-.81V1.57Z"/>
      <path class="cls-1" d="M182.45,1.95h.81v16.25h-.81V1.95Z"/>
      <path class="cls-1" d="M185.49,3.67c0-2.14,1.49-3.67,3.63-3.67s3.63,1.53,3.63,3.67-1.48,3.69-3.63,3.69-3.63-1.53-3.63-3.69ZM192.35,3.67c0-1.92-1.31-3.28-3.23-3.28s-3.23,1.36-3.23,3.28,1.31,3.3,3.23,3.3,3.23-1.36,3.23-3.3ZM188.05,1.77h1.34c.65,0,1.07.38,1.07.99s-.42.99-1.03.99h-.43l1.67,1.75h0s-.52.01-.52.01l-1.68-1.79h-.01v1.79h-.4V1.77ZM189.34,3.42c.42,0,.7-.25.7-.67,0-.39-.29-.63-.71-.63h-.88v1.29h.89Z"/>
    </g>
  </g>
</svg>